<svg width="600" height="400" viewBox="0 0 600 400" fill="none" xmlns="http://www.w3.org/2000/svg">
<path d="M106.28 63.7269C103 66.8643 103 71.9513 106.28 75.0886C109.56 78.226 114.879 78.226 118.159 75.0886C121.438 71.9513 121.438 66.8643 118.159 63.7269C114.879 60.5896 109.56 60.5896 106.28 63.7269ZM115.16 72.2277C113.535 73.7814 110.904 73.7814 109.279 72.2277C107.655 70.6739 107.655 68.1566 109.279 66.6028C110.904 65.0491 113.535 65.0491 115.16 66.6028C116.784 68.1491 116.784 70.6739 115.16 72.2277ZM118.018 24.1962L112.872 29.1188C111.864 30.0825 111.864 31.6661 112.872 32.6297L132.965 51.8498C133.973 52.8134 135.628 52.8134 136.636 51.8498L141.782 46.9271C142.79 45.9635 142.79 44.3799 141.782 43.4162L121.681 24.1962C120.673 23.2325 119.025 23.2325 118.018 24.1962V24.1962ZM81.9617 87.1003C82.8754 86.2263 82.8754 84.7995 81.9617 83.9255L79.3456 81.4231C78.4319 80.5491 76.9403 80.5491 76.0265 81.4231L70.6224 86.5923L70.6146 86.5998L69.1308 85.1805C68.3108 84.3961 66.9754 84.3961 66.1632 85.1805C65.3432 85.9648 65.3432 87.2422 66.1632 88.019L75.066 96.5347C75.886 97.3191 77.2214 97.3191 78.0336 96.5347C78.8458 95.7504 78.8536 94.473 78.0336 93.6962L76.5498 92.2769L76.5576 92.2694L81.9617 87.1003Z" fill="#F5A800"/>
<path d="M109.185 38.3292L97.7524 49.2652C96.7372 50.2363 96.7372 51.8348 97.7524 52.8059L104.812 59.5587C109.802 56.1225 116.8 56.5483 121.29 60.8435L127.007 55.3756C128.022 54.4045 128.022 52.8059 127.007 51.8348L112.887 38.3292C111.872 37.3507 110.201 37.3507 109.185 38.3292ZM101.845 62.4047L97.6743 58.4158C96.6982 57.4821 95.0972 57.4821 94.121 58.4158L79.4159 72.4891C78.4397 73.4229 78.4397 74.9542 79.4159 75.8879L87.7485 83.8583C88.7247 84.7921 90.3257 84.7921 91.3018 83.8583L100.759 74.7973C98.7599 70.8457 99.1191 66.0725 101.845 62.4047Z" fill="#425CC7"/>
<path d="M117.101 285.572C138.201 285.577 155.52 302.905 155.493 323.985C155.466 345.385 138.219 362.472 116.66 362.457C95.5837 362.442 78.543 345.096 78.5578 323.672C78.5722 302.723 95.9272 285.568 117.101 285.572ZM105.438 299.064C105.922 301.462 105.452 303.699 104.737 305.9C104.241 307.423 103.557 308.891 103.148 310.435C102.474 312.98 101.71 315.539 101.429 318.142C101.026 321.884 102.486 325.181 104.985 328.458L93.5003 326.023C93.5204 326.388 93.499 326.527 93.5386 326.644C94.6271 329.865 96.5427 332.579 98.6898 335.137C98.9171 335.408 99.4344 335.547 99.8174 335.548C111.268 335.569 122.719 335.568 134.17 335.553C134.525 335.552 134.999 335.485 135.217 335.254C137.671 332.655 139.548 329.695 140.721 325.966L128.564 328.364C129.366 326.781 130.281 325.388 130.807 323.859C132.607 318.626 131.862 313.567 129.278 308.795C127.204 304.966 125.292 301.153 126.326 296.538C124.137 298.716 123.296 301.489 122.762 304.347C122.236 307.162 121.927 310.018 121.52 312.874C121.462 312.787 121.387 312.724 121.375 312.65C121.328 312.35 121.284 312.048 121.268 311.745C121.021 307.068 120.114 302.561 118.2 298.256C117.073 295.723 115.831 293.132 116.992 290.11C116.206 290.527 115.496 290.942 114.986 291.535C113.467 293.303 112.838 295.427 112.676 297.753C112.538 299.739 112.349 301.736 111.983 303.689C111.599 305.743 110.989 307.755 109.62 309.642C109.067 305.611 109.005 301.625 105.438 299.064V299.064ZM134.963 339.08H99.0477V345.365H134.963V339.08ZM106.169 348.612C106.139 353.845 111.431 357.744 117.971 357.461C123.391 357.227 128.188 352.932 127.775 348.612H106.169V348.612Z" fill="#E75225"/>
<path d="M509.933 88.925C508.653 89.2177 504.887 91.2653 501.633 91.8868C498.379 92.5084 495.563 92.8375 494.576 93.2031C493.589 93.5687 492.821 94.3 494.759 95.0313C496.697 95.7625 506.094 96.0187 506.935 95.0313C507.776 94.044 506.355 93.6162 504.302 93.642C502.839 93.6601 503.019 93.1504 503.022 93.0933C503.022 93.0933 503.114 92.4536 505.362 92.1427C507.607 91.8324 517.538 90.8995 517.355 89.8393C517.173 88.779 511.213 88.6326 509.933 88.925V88.925Z" fill="#231F20"/>
<path d="M503.609 97.3037C504.66 97.075 505.458 96.6416 505.391 96.3358C505.324 96.0299 504.419 95.9673 503.368 96.196C502.317 96.4247 501.519 96.858 501.586 97.1639C501.652 97.4698 502.558 97.5323 503.609 97.3037Z" fill="#231F20"/>
<path d="M499.025 97.0405C500.153 96.9508 501.047 96.6333 501.023 96.3313C500.999 96.0294 500.066 95.8574 498.938 95.9471C497.811 96.0368 496.917 96.3543 496.941 96.6563C496.965 96.9582 497.898 97.1303 499.025 97.0405Z" fill="#231F20"/>
<path d="M495.438 96.4716C496.189 96.3693 496.771 96.0959 496.739 95.8608C496.707 95.6257 496.073 95.518 495.322 95.6202C494.572 95.7224 493.99 95.9959 494.022 96.231C494.054 96.4661 494.688 96.5738 495.438 96.4716Z" fill="#231F20"/>
<path d="M492.77 95.9784C493.495 95.8733 494.06 95.6341 494.032 95.4442C494.005 95.2543 493.395 95.1856 492.67 95.2908C491.946 95.3959 491.381 95.6351 491.409 95.825C491.436 96.0149 492.046 96.0836 492.77 95.9784Z" fill="#231F20"/>
<path d="M492.167 95.2289C492.892 95.1238 493.456 94.8846 493.429 94.6947C493.401 94.5048 492.792 94.4361 492.067 94.5413C491.343 94.6465 490.778 94.8857 490.805 95.0755C490.833 95.2654 491.443 95.3341 492.167 95.2289Z" fill="#231F20"/>
<path d="M492.003 94.3362C492.632 94.2448 493.124 94.0369 493.1 93.8719C493.076 93.7069 492.546 93.6472 491.916 93.7387C491.286 93.8301 490.795 94.038 490.819 94.203C490.843 94.368 491.373 94.4276 492.003 94.3362Z" fill="#231F20"/>
<path d="M529.458 89.9489C527.228 90.0586 522.182 89.8026 521.487 90.9727C520.792 92.1427 523.535 92.5816 527.849 92.2158C532.164 91.8502 538.27 91.3749 538.526 90.0586C538.782 88.7422 537.392 88.9984 537.246 88.1573C537.1 87.3164 538.782 87.3164 539.111 86.073C539.44 84.8299 536.844 84.9761 534.54 84.9761C532.237 84.9761 528.398 85.1957 528.032 86.4022C527.666 87.6088 529.787 87.6088 531.286 87.9013C532.785 88.1939 532.347 88.7424 532.347 88.7424C532.274 89.5102 531.688 89.8393 529.458 89.9489V89.9489Z" fill="#231F20"/>
<path d="M523.494 93.788C524.561 93.788 525.427 93.5057 525.427 93.1574C525.427 92.8091 524.561 92.5267 523.494 92.5267C522.426 92.5267 521.56 92.8091 521.56 93.1574C521.56 93.5057 522.426 93.788 523.494 93.788Z" fill="#231F20"/>
<path d="M528.471 93.5961C529.183 93.5961 529.76 93.3383 529.76 93.0202C529.76 92.7022 529.183 92.4444 528.471 92.4444C527.759 92.4444 527.182 92.7022 527.182 93.0202C527.182 93.3383 527.759 93.5961 528.471 93.5961Z" fill="#231F20"/>
<path d="M532.488 93.0752C533.268 93.0752 533.901 92.8664 533.901 92.6089C533.901 92.3514 533.268 92.1427 532.488 92.1427C531.708 92.1427 531.076 92.3514 531.076 92.6089C531.076 92.8664 531.708 93.0752 532.488 93.0752Z" fill="#231F20"/>
<path d="M535.587 92.5815C536.155 92.5815 536.616 92.3605 536.616 92.0879C536.616 91.8152 536.155 91.5942 535.587 91.5942C535.019 91.5942 534.559 91.8152 534.559 92.0879C534.559 92.3605 535.019 92.5815 535.587 92.5815Z" fill="#231F20"/>
<path d="M538.261 92.0057C538.836 92.0057 539.303 91.7908 539.303 91.5257C539.303 91.2607 538.836 91.0458 538.261 91.0458C537.685 91.0458 537.219 91.2607 537.219 91.5257C537.219 91.7908 537.685 92.0057 538.261 92.0057Z" fill="#231F20"/>
<path d="M492.793 78.043C492.793 78.6663 494.153 79.2559 496.568 79.7805C496.396 78.5295 496.502 77.2677 496.664 76.2848C494.189 76.8146 492.793 77.4113 492.793 78.043H492.793ZM564.065 76.4275C564.028 76.5284 563.989 76.6282 563.947 76.7269C563.655 77.4153 563.223 78.0361 562.68 78.5503C561.589 79.5836 560.633 80.2028 559.778 80.4286C564.499 79.765 567.301 78.9389 567.301 78.043C567.301 77.4675 566.142 76.9208 564.065 76.4275H564.065Z" fill="#231F20"/>
<path d="M555.99 75.1162C555.69 72.9158 554.752 71.9288 553.924 71.0579C553.153 70.2467 552.424 69.4808 552.659 68.0744C552.876 66.7741 553.91 65.9741 555.6 65.7662C554.574 58.8278 553.07 50.0745 551.136 42.6071C550.17 38.8777 548.643 36.2873 546.595 34.5651C544.251 35.7641 541.431 37.0823 538.284 38.447C536.015 39.4292 533.73 40.3726 531.429 41.2769C529.632 43.2053 527.668 45.106 526.464 45.6477C525.607 46.0332 524.846 46.1867 524.184 46.1867C522.751 46.1867 521.784 45.468 521.315 44.8286C520.772 44.9722 520.339 45.0652 520.044 45.0964C519.691 45.1334 519.171 45.1775 518.521 45.2245C518.771 45.8786 518.671 46.6444 518.192 47.2215C517.665 47.8564 516.816 48.1752 515.613 48.1752C513.881 48.1752 511.416 47.5149 508.119 46.1833C507.634 45.9876 507.189 45.8133 506.78 45.6584C506.528 45.6596 506.275 45.6605 506.023 45.6605H506.021C502.871 45.6605 500.41 45.5614 498.481 45.4034C496.368 49.7779 497.286 54.6297 498.059 58.6377C498.801 62.4786 501.372 69.3129 503.758 75.1849C504.565 77.1705 505.39 79.149 506.232 81.1202C512.69 81.6914 520.969 82.0346 529.997 82.0346C540.74 82.0346 550.416 81.5479 557.231 80.7701C556.734 78.7268 556.105 75.8838 555.997 75.1607L555.99 75.1162V75.1162ZM502.775 56.415C502.775 52.2859 506.122 48.9384 510.251 48.9384C514.38 48.9384 517.727 52.2859 517.727 56.415C517.727 58.4735 516.895 60.3377 515.549 61.6897C515.096 62.1437 514.588 62.5379 514.035 62.8625C512.888 63.5377 511.582 63.8931 510.251 63.8915C506.122 63.8915 502.774 60.5442 502.774 56.415H502.775ZM522.745 72.2435C521.17 72.7128 520.603 70.9013 520.434 70.1159C520.444 70.1088 520.456 70.1017 520.467 70.0951C521.202 69.6347 522.052 69.1095 523.01 68.7413C523.123 69.0446 523.296 69.5546 523.4 70.0951C523.576 71.0049 523.56 72.0009 522.746 72.2435H522.745ZM525.305 71.6037C524.914 71.4571 524.618 70.8063 524.407 70.0951C524.227 69.492 524.107 68.8452 524.04 68.4252C524.226 68.3834 524.414 68.3483 524.606 68.3231C524.701 68.3106 524.902 68.2958 525.325 68.2958C525.712 68.2958 526.181 68.3079 526.677 68.3208C526.82 68.3243 526.967 68.3282 527.118 68.3318C527.157 68.6716 527.204 69.1645 527.258 69.8862C527.264 69.9588 527.266 70.0278 527.267 70.0951C527.29 71.8958 525.716 71.7579 525.305 71.6037V71.6037ZM532.035 67.057C531.274 67.3971 530.153 67.5423 528.285 67.5423C527.652 67.5423 526.998 67.5254 526.422 67.5106C525.922 67.4976 525.45 67.4857 525.057 67.4857C524.697 67.4857 524.434 67.496 524.276 67.5168C522.512 67.749 521.057 68.6611 519.887 69.3942C519.545 69.6082 519.222 69.8105 518.92 69.9775C518.436 70.2451 517.841 70.3867 517.2 70.3867C516.016 70.3867 514.902 69.9216 514.22 69.1426C513.653 68.4956 513.416 67.6881 513.533 66.8077C513.886 64.1606 517.666 62.8108 518.096 62.6656L518.788 62.4317C518.765 62.3644 518.748 62.2954 518.736 62.2253C518.531 60.993 520.14 59.6992 522.33 59.3356C522.428 59.3197 522.525 59.3057 522.623 59.2938C524.436 59.0687 526.028 59.5752 526.524 60.497L527.368 60.5042C529.291 60.5205 530.878 60.7788 532.085 61.2721C533.299 61.7681 534.041 62.489 534.177 63.3021C534.449 64.9325 533.648 66.3363 532.035 67.057V67.057ZM533.421 58.503C529.292 58.503 525.945 55.1557 525.945 51.0266C525.945 46.8974 529.292 43.5499 533.421 43.5499C537.55 43.5499 540.898 46.8974 540.898 51.0266C540.898 55.1555 537.55 58.503 533.421 58.503Z" fill="#67CFE3"/>
<path d="M542.997 25.8359L542.941 25.7384L542.867 25.6448C542.798 25.5335 542.524 25.3614 542.503 25.3597L542.475 25.3447L542.46 25.3372L542.407 25.3141L542.402 25.3123L542.393 25.3088L542.317 25.2821L542.164 25.2298C542.064 25.1924 541.949 25.1795 541.84 25.1569C541.73 25.1373 541.613 25.138 541.499 25.1307C541.385 25.1348 541.268 25.1426 541.154 25.159C540.695 25.2399 540.289 25.4623 539.981 25.7268C539.667 25.9908 539.432 26.2933 539.242 26.5932C538.863 27.1963 538.65 27.7976 538.509 28.3161C538.397 28.7329 538.323 29.1589 538.288 29.589C538.272 29.7432 538.273 29.8674 538.27 29.9503C538.268 30.0339 538.271 30.0789 538.271 30.0789L538.505 29.6537C538.654 29.3862 538.862 29.0064 539.119 28.5693C539.378 28.1352 539.687 27.6374 540.062 27.1863C540.25 26.9627 540.457 26.7542 540.674 26.593C540.893 26.4338 541.118 26.3246 541.341 26.2888C541.398 26.2817 541.454 26.2764 541.511 26.2716C541.568 26.2778 541.625 26.2712 541.684 26.2819C541.743 26.2963 541.802 26.2956 541.863 26.3153L542.006 26.3541L542.052 26.3747C542.049 26.373 542.047 26.3714 542.046 26.3692C542.048 26.3701 542.051 26.3706 542.053 26.3706C542.054 26.3733 542.056 26.3754 542.058 26.3778L542.064 26.3806L542.077 26.3868L542.071 26.3861C542.068 26.3855 542.065 26.3845 542.062 26.3833C542.069 26.3877 542.076 26.3984 542.082 26.4126C542.113 26.4678 542.135 26.577 542.146 26.6978C542.161 26.9472 542.13 27.235 542.084 27.5076C542.039 27.7715 541.985 28.0339 541.922 28.2942C541.806 28.7881 541.694 29.2083 541.621 29.5061C541.544 29.8028 541.504 29.9778 541.504 29.9778C541.504 29.9778 541.632 29.8515 541.825 29.6076C542.094 29.2709 542.333 28.9121 542.541 28.5349C542.683 28.2782 542.808 28.0122 542.915 27.7387C543.027 27.4407 543.13 27.1123 543.162 26.714C543.175 26.5121 543.169 26.2877 543.083 26.0305C543.061 25.9627 543.033 25.8974 542.997 25.8359V25.8359Z" fill="black"/>
<path d="M542.058 26.3779L542.052 26.3747C542.054 26.3772 542.056 26.3806 542.06 26.3824L542.062 26.3833L542.061 26.3817C542.06 26.3806 542.059 26.3792 542.058 26.3779V26.3779Z" fill="black"/>
<path d="M496.626 40.1238H496.729C496.694 40.0624 496.66 40.0007 496.626 39.9388V40.1238ZM497.542 37.2266C497.718 37.58 497.929 37.9149 498.172 38.226C498.256 38.3399 498.334 38.4222 498.383 38.4801C498.434 38.537 498.464 38.5656 498.464 38.5656C498.464 38.5656 498.434 38.4041 498.377 38.131C498.324 37.8572 498.243 37.4707 498.17 37.0208C498.133 36.7963 498.1 36.555 498.084 36.311C498.07 36.0708 498.07 35.8141 498.123 35.6254C498.149 35.5318 498.184 35.4592 498.217 35.4226C498.25 35.3895 498.276 35.3786 498.323 35.3619L498.358 35.3548L498.415 35.3432C498.431 35.3407 498.411 35.3525 498.409 35.3539C498.403 35.3571 498.396 35.3587 498.39 35.3585C498.387 35.3584 498.383 35.3579 498.38 35.3569L498.388 35.361C498.398 35.3654 498.407 35.3662 498.419 35.3674C498.474 35.388 498.558 35.4327 498.647 35.4998C498.831 35.6332 499.022 35.8406 499.204 36.0509C499.386 36.2683 499.561 36.4912 499.729 36.7192C500.063 37.1736 500.372 37.6178 500.644 37.9992C500.864 38.3113 501.09 38.6194 501.321 38.9234C501.41 39.0419 501.502 39.1584 501.596 39.2729L501.582 39.1562C501.571 39.0815 501.559 38.9687 501.53 38.831C501.458 38.4484 501.36 38.071 501.237 37.7014C501.066 37.1754 500.849 36.6654 500.589 36.1774C500.442 35.9075 500.278 35.6312 500.076 35.3621C499.875 35.091 499.647 34.8245 499.33 34.5804C499.165 34.463 498.975 34.3495 498.732 34.2762C498.666 34.2609 498.6 34.2482 498.533 34.2381L498.483 34.2314L498.416 34.2305C498.37 34.2306 498.325 34.2328 498.28 34.2365C498.24 34.2401 498.179 34.2467 498.158 34.2522L498.102 34.2673L498.046 34.2826L497.972 34.3043L497.95 34.3139L497.906 34.3335C497.676 34.4279 497.45 34.6176 497.322 34.8376C497.191 35.0561 497.14 35.2763 497.122 35.4718C497.084 35.866 497.162 36.1823 497.239 36.4704C497.319 36.7304 497.42 36.9833 497.542 37.2264V37.2266Z" fill="#231F20"/>
<path d="M500.989 83.1548C502.742 83.1548 503.976 82.2007 504.843 80.9624C503.851 78.664 502.22 74.7907 500.674 70.7143C500.255 71.0705 499.771 71.6083 499.248 72.4195C497.945 74.439 496.872 79.1377 498.223 81.6178C498.787 82.6522 499.692 83.1548 500.989 83.1548ZM562.87 71.512C561.843 68.8535 559.657 66.9664 557.556 66.9225L557.481 66.9161C557.478 66.9154 557.074 66.8552 556.532 66.8552C555.387 66.8552 553.983 67.0995 553.789 68.2626C553.654 69.0697 554.007 69.4831 554.754 70.2685C555.607 71.1658 556.775 72.3947 557.125 74.9614C557.526 77.9008 558.244 79.3916 559.258 79.3918C559.732 79.3918 560.596 79.1078 562.024 77.7551C563.783 76.0889 563.614 73.4377 562.87 71.512V71.512Z" fill="#DFCAA3"/>
<path d="M509.577 61.3993C510.879 61.3993 511.935 60.3438 511.935 59.0418C511.935 57.7398 510.879 56.6844 509.577 56.6844C508.275 56.6844 507.22 57.7398 507.22 59.0418C507.22 60.3438 508.275 61.3993 509.577 61.3993Z" fill="#231F20"/>
<path d="M532.411 55.8762C533.713 55.8762 534.768 54.8207 534.768 53.5187C534.768 52.2167 533.713 51.1612 532.411 51.1612C531.109 51.1612 530.053 52.2167 530.053 53.5187C530.053 54.8207 531.109 55.8762 532.411 55.8762Z" fill="#231F20"/>
<path d="M503.182 32.7055C505.022 33.202 507.102 33.4538 509.365 33.4538C513 33.4538 520.719 32.7475 531.568 28.0171L531.812 27.9105C531.778 27.3596 531.823 26.7554 531.962 26.123C532.203 25.0289 532.679 24.1016 533.264 23.4873C533.151 23.0676 533.059 22.7611 532.994 22.6055C531.742 21.938 521.421 18.0935 516.038 18.0935C515.5 18.0935 515.031 18.1335 514.642 18.2127C509.872 19.1865 502.623 27.4796 502.363 28.6554C502.285 29.1641 502.308 30.7609 502.366 32.4851L503.182 32.7057V32.7055ZM503.089 44.4826C502.829 44.4282 502.683 44.4115 502.623 44.4065C501.628 44.4679 500.716 43.7723 500.532 42.7634C500.515 42.6625 500.505 42.5604 500.503 42.458C499.962 42.765 499.42 43.097 498.914 43.4478L498.012 44.0719L497.349 43.1989C497.149 42.9356 496.227 41.6911 495.377 40.0537C493.78 40.8071 492.532 41.6306 492.228 42.4108C492.17 42.5589 492.194 42.6385 492.253 42.7261C492.514 43.1077 494.06 44.2739 503.089 44.4826H503.089ZM521.838 41.9259C522.63 41.4212 523.643 41.5434 524.295 42.1636C524.395 42.1477 524.566 42.1049 524.819 41.991C525.807 41.5214 529.373 37.7149 532.081 34.4553C532.177 34.3408 532.285 34.2375 532.404 34.1474C526.214 36.822 517.564 39.7452 509.329 39.7452C508.006 39.7452 506.749 39.668 505.582 39.517L505.763 40.0494L504.733 40.4438C504.725 40.4467 504.548 40.515 504.252 40.6381C505.578 40.9478 507.37 41.5566 509.621 42.4656C513.74 44.1293 515.316 44.193 515.71 44.1693C516.27 43.8726 516.947 43.8611 517.527 44.1441C518.595 44.0756 519.426 44.0092 519.924 43.9569C520.15 43.9331 520.486 43.8627 520.913 43.7524C520.889 43.393 520.962 43.0336 521.125 42.7122C521.287 42.3908 521.534 42.1192 521.838 41.9259V41.9259ZM545.817 29.692C545.517 31.4798 544.94 33.4424 544.558 33.9778L544.199 34.4795C545.824 33.6886 547.273 32.9384 548.503 32.2487C552.78 29.8505 553.312 28.8003 553.373 28.5355C553.413 28.362 553.371 28.3085 553.352 28.2857C553.306 28.2272 553.005 27.9358 551.654 27.9358C550.178 27.9358 548.111 28.2734 545.955 28.7415C545.916 29.0593 545.87 29.3762 545.817 29.692V29.692ZM544.149 34.5039L543.532 34.4537C543.521 34.4528 542.389 34.3619 540.853 34.3619C539.258 34.3619 537.154 34.4583 535.428 34.867C535.758 35.552 535.683 36.3951 535.165 37.0179C534.511 37.804 533.847 38.5811 533.172 39.3491C534.732 38.7164 536.284 38.0653 537.828 37.3959C540.134 36.3962 542.26 35.4227 544.149 34.5039H544.149Z" fill="#648C1A"/>
<path d="M532.026 29.0672C527.691 30.9573 518.192 34.5994 509.365 34.5994C507.13 34.5994 504.938 34.366 502.884 33.8115C503.107 34.1509 503.32 34.4975 503.521 34.851C504.284 36.1921 504.842 37.5169 505.147 38.2988C506.214 38.4656 507.607 38.5996 509.329 38.5996C514.4 38.5996 522.325 37.439 533.199 32.5445C533.37 32.0082 533.598 31.3366 533.879 30.5903C533.857 30.5914 533.835 30.5952 533.813 30.5952C533.698 30.5952 533.582 30.5827 533.47 30.5581C532.795 30.4098 532.296 29.8594 532.026 29.0672V29.0672Z" fill="#DFCAA3"/>
<path d="M496.729 40.1238C497.512 41.5182 498.262 42.5058 498.262 42.5058C500.888 40.6874 504.324 39.374 504.324 39.374C504.324 39.374 504.235 39.1148 504.07 38.6914C503.97 38.4341 503.865 38.1784 503.757 37.9245C503.642 37.6556 503.523 37.3885 503.4 37.1232C503.339 36.991 503.276 36.8592 503.212 36.7279C503.071 36.4366 502.924 36.1482 502.771 35.8628C502.506 35.3697 502.212 34.8677 501.891 34.3872C500.837 32.8062 499.5 31.4611 498.004 31.4615C497.532 31.4615 497.044 31.5955 496.544 31.8973C493.794 33.5601 495.213 37.3677 496.626 39.939C496.66 40.0012 496.694 40.063 496.729 40.124V40.1238ZM497.122 35.4718C497.14 35.2763 497.191 35.0561 497.322 34.8376C497.45 34.6176 497.676 34.4279 497.906 34.3335L497.95 34.3139L497.972 34.3043L498.046 34.2826L498.102 34.2673L498.158 34.2522C498.179 34.2468 498.24 34.2401 498.28 34.2365C498.325 34.2328 498.371 34.2306 498.416 34.2305L498.483 34.2313L498.533 34.2381C498.6 34.2484 498.667 34.2609 498.732 34.2762C498.975 34.3495 499.165 34.463 499.33 34.5804C499.647 34.8245 499.875 35.0909 500.076 35.3621C500.278 35.6312 500.442 35.9075 500.589 36.1774C500.849 36.6654 501.066 37.1753 501.237 37.7012C501.36 38.0708 501.458 38.4482 501.53 38.8309C501.559 38.9687 501.571 39.0813 501.582 39.1562L501.596 39.2729C501.596 39.2729 501.49 39.1466 501.321 38.9234C501.09 38.6194 500.864 38.3113 500.644 37.9992C500.372 37.6178 500.063 37.1737 499.729 36.7192C499.561 36.4912 499.386 36.2683 499.204 36.0509C499.022 35.8406 498.831 35.6333 498.647 35.4997C498.558 35.4327 498.474 35.388 498.419 35.3674C498.407 35.3661 498.398 35.3656 498.388 35.361L498.381 35.3569C498.384 35.3579 498.387 35.3585 498.39 35.3587C498.396 35.3587 498.403 35.357 498.409 35.3537C498.411 35.3524 498.431 35.3407 498.415 35.3432L498.358 35.3548L498.323 35.3619C498.276 35.3786 498.25 35.3895 498.217 35.4224C498.184 35.4592 498.149 35.5318 498.123 35.6253C498.07 35.8139 498.07 36.071 498.084 36.3108C498.1 36.555 498.133 36.7963 498.17 37.0206C498.243 37.4707 498.324 37.8572 498.377 38.131C498.434 38.4041 498.464 38.5656 498.464 38.5656C498.464 38.5656 498.434 38.5371 498.383 38.4802C498.334 38.4222 498.256 38.3397 498.172 38.226C497.929 37.9149 497.718 37.58 497.542 37.2266C497.42 36.9834 497.319 36.7305 497.239 36.4703C497.162 36.1822 497.084 35.866 497.122 35.4718ZM498.004 30.8887V31.4615V30.8887Z" fill="#67CFE3"/>
<path d="M534.848 22.6921C534.963 22.692 535.078 22.7044 535.191 22.7291C536.032 22.9141 536.6 23.7232 536.791 24.8456C538.393 22.5948 540.141 21.4566 542.009 21.4566C542.797 21.4566 543.488 21.6423 544.067 22.0008C545.053 20.8021 545.68 19.9755 545.68 19.9755C544.939 20.1101 543.39 20.3122 543.39 20.3122C549.25 18.1568 548.778 12.2969 548.778 12.2969C548.778 13.3074 545.747 15.7321 545.747 15.7321C545.882 14.8565 545.411 13.7114 545.411 13.7114C545.545 14.8565 541.908 17.8201 541.908 17.8201C542.177 17.2812 541.975 16.3382 541.975 16.3382C541.773 17.4159 540.157 17.8201 540.157 17.8201C541.167 16.6077 543.053 10.2089 541.639 9.80477C540.224 9.40059 538.271 13.9809 538.271 13.9809C538.203 12.9032 537.597 12.9032 537.597 12.9032C537.867 16.2708 535.173 18.9652 535.173 18.9652C534.971 18.2917 533.893 17.9547 533.893 17.9547C534.239 18.7044 533.845 22.1166 533.724 23.0846C534.081 22.8319 534.463 22.6921 534.848 22.6921V22.6921Z" fill="#DFCAA3"/>
<path d="M533.408 29.2444L533.412 29.2488C533.441 29.2803 533.471 29.3086 533.502 29.333C533.513 29.3419 533.525 29.3477 533.536 29.3558C533.559 29.3712 533.581 29.3871 533.604 29.3986C533.64 29.417 533.678 29.4308 533.716 29.4392H533.716C533.778 29.4515 533.842 29.4527 533.904 29.4427C534.081 29.4155 534.275 29.3058 534.469 29.1248C534.65 28.7002 534.841 28.2796 535.042 27.8636C535.223 27.4868 535.414 27.1145 535.613 26.7471C535.901 25.2243 535.514 23.9731 534.945 23.8481C534.913 23.841 534.88 23.8375 534.848 23.8376C534.263 23.8376 533.414 24.8548 533.081 26.3691C532.839 27.4681 532.951 28.4447 533.236 28.9905L533.237 28.9927C533.288 29.0912 533.346 29.1759 533.408 29.2444H533.408Z" fill="black"/>
<path d="M542.053 26.3707C542.051 26.3706 542.048 26.3701 542.046 26.3692C542.047 26.3714 542.049 26.3728 542.052 26.3747L542.058 26.3779C542.056 26.3755 542.055 26.3733 542.053 26.3707V26.3707ZM542.077 26.3868L542.064 26.3806L542.058 26.3779C542.059 26.3792 542.06 26.3806 542.061 26.3817L542.062 26.3833C542.065 26.3845 542.068 26.3855 542.071 26.3861L542.077 26.3868V26.3868Z" fill="#67CFE3"/>
<path d="M542.009 22.6024C538.673 22.6024 536.219 27.6238 534.936 31.0351C534.713 31.629 534.504 32.2283 534.311 32.8326C534.211 33.1444 534.115 33.4576 534.024 33.7722C534.185 33.8049 534.343 33.8597 534.494 33.933C536.438 33.3513 538.953 33.2165 540.853 33.2165C542.461 33.2165 543.626 33.312 543.626 33.312C544.131 32.6047 547.061 22.6024 542.009 22.6024V22.6024ZM543.162 26.7138C543.13 27.1123 543.027 27.4407 542.915 27.7385C542.808 28.0121 542.683 28.2782 542.541 28.5349C542.333 28.9121 542.094 29.2709 541.825 29.6077C541.632 29.8514 541.504 29.9777 541.504 29.9777C541.504 29.9777 541.545 29.8028 541.621 29.5061C541.694 29.2083 541.806 28.7881 541.922 28.2942C541.98 28.0477 542.038 27.7819 542.084 27.5076C542.13 27.235 542.16 26.9472 542.146 26.6978C542.135 26.577 542.113 26.4678 542.082 26.4126C542.076 26.3984 542.069 26.3877 542.062 26.3833L542.06 26.3824C542.056 26.3806 542.054 26.3772 542.052 26.3747L542.006 26.3541L541.863 26.3153C541.802 26.2956 541.743 26.2963 541.684 26.2819C541.625 26.2712 541.568 26.2778 541.511 26.2716C541.454 26.2765 541.398 26.2817 541.341 26.2886C541.118 26.3246 540.893 26.4338 540.674 26.593C540.457 26.7542 540.25 26.9627 540.062 27.1863C539.687 27.6374 539.378 28.135 539.119 28.5693C538.862 29.0064 538.654 29.3862 538.505 29.6537L538.271 30.0789C538.271 30.0789 538.268 30.0339 538.27 29.9503C538.273 29.8674 538.272 29.7432 538.288 29.589C538.323 29.1589 538.397 28.7329 538.509 28.3161C538.65 27.7974 538.863 27.1961 539.241 26.593C539.432 26.2933 539.667 25.9908 539.981 25.7268C540.289 25.4623 540.695 25.2399 541.154 25.159C541.268 25.1435 541.384 25.1341 541.499 25.1307C541.613 25.1378 541.73 25.1375 541.84 25.1569C541.949 25.1795 542.064 25.1924 542.164 25.2298L542.317 25.2821L542.393 25.3088L542.402 25.3123L542.407 25.3141L542.46 25.3372L542.475 25.3447L542.503 25.3597C542.524 25.3614 542.798 25.5335 542.867 25.6448L542.941 25.7384L542.997 25.8359C543.036 25.9022 543.062 25.9668 543.083 26.0305C543.169 26.2877 543.175 26.5121 543.162 26.7138V26.7138Z" fill="#67CFE3"/>
<path d="M524.184 44.9743C524.729 44.9743 525.329 44.829 525.967 44.5421C527.296 43.944 530.54 40.6863 534.233 36.2432C534.3 36.1633 534.35 36.0709 534.381 35.9715C534.411 35.872 534.422 35.7674 534.412 35.6638C534.403 35.5601 534.373 35.4593 534.325 35.3672C534.276 35.2751 534.21 35.1936 534.13 35.1272C533.988 35.0085 533.809 34.9436 533.625 34.9442C533.508 34.9439 533.393 34.9694 533.287 35.0189C533.182 35.0683 533.088 35.1405 533.014 35.2302C531.406 37.1647 526.894 42.3473 525.34 43.0861L525.316 43.0968C525.014 43.2329 524.734 43.3219 524.483 43.3612L523.892 43.454L523.459 43.0419C523.311 42.9025 523.115 42.8248 522.912 42.8246C522.762 42.8249 522.615 42.8681 522.488 42.949C522.4 43.0046 522.324 43.0771 522.264 43.1623C522.205 43.2475 522.162 43.3437 522.14 43.4453C522.117 43.5469 522.115 43.652 522.133 43.7546C522.151 43.8571 522.189 43.955 522.245 44.0427C522.306 44.138 522.876 44.9743 524.184 44.9743V44.9743ZM516.65 45.1487C516.52 45.1487 516.392 45.1807 516.278 45.2408L516.045 45.3641L515.782 45.3796C515.731 45.3826 515.669 45.3849 515.593 45.3849C514.853 45.3849 513.034 45.1519 509.167 43.59C504.902 41.8674 503.212 41.61 502.585 41.61C502.465 41.61 502.395 41.6197 502.363 41.6254C502.261 41.6438 502.163 41.6823 502.075 41.7387C501.988 41.7951 501.912 41.8683 501.853 41.954C501.794 42.0394 501.752 42.1356 501.73 42.2373C501.708 42.3389 501.706 42.444 501.725 42.5462C501.793 42.9177 502.126 43.1979 502.501 43.1979C502.516 43.1979 502.532 43.1973 502.548 43.1964L502.636 43.1909L502.723 43.198C503.193 43.2372 504.705 43.4969 508.573 45.0592C511.701 46.3223 514.069 46.9629 515.613 46.9629C516.421 46.9629 516.975 46.7894 517.259 46.447C517.326 46.3671 517.376 46.2748 517.407 46.1754C517.438 46.076 517.448 45.9715 517.439 45.8679C517.429 45.7643 517.399 45.6635 517.351 45.5714C517.302 45.4794 517.236 45.3978 517.156 45.3316C517.014 45.2129 516.835 45.1481 516.65 45.1487V45.1487Z" fill="black"/>
<path d="M527.358 61.6448C527.358 61.6448 527.135 64.2605 523.454 64.803C522.757 64.9059 522.159 64.9505 521.643 64.9505C519.685 64.9505 518.914 64.306 518.461 63.7462C518.461 63.7462 514.933 64.9379 514.664 66.9584C514.462 68.4693 515.918 69.246 517.2 69.246C517.633 69.246 518.046 69.1576 518.368 68.9791C519.648 68.2718 521.568 66.7227 524.127 66.386C524.359 66.3557 524.678 66.345 525.058 66.345C525.934 66.345 527.128 66.4016 528.286 66.4016C529.601 66.4016 530.87 66.3283 531.57 66.0156C533.153 65.3083 533.153 64.0959 533.052 63.4896C532.94 62.8179 531.332 61.6786 527.358 61.6448V61.6448Z" fill="#DFCAA3"/>
<path d="M523.071 63.7986C523.115 63.7915 523.158 63.7831 523.201 63.7751C523.249 63.7662 523.297 63.757 523.344 63.7472C525.259 63.3532 526.667 62.2473 526.683 61.1403C526.686 60.9157 526.631 60.6941 526.524 60.497C526.027 59.5752 524.436 59.0685 522.623 59.2937C522.525 59.3057 522.428 59.3197 522.33 59.3355C520.14 59.6992 518.531 60.993 518.736 62.2255C518.747 62.2961 518.765 62.3648 518.788 62.4318C519.164 63.5348 521.007 64.1414 523.071 63.7986V63.7986Z" fill="#231F20"/>
<path d="M166.079 180.357H164.714C162.219 180.32 157.413 180.594 153.08 184.344C142.702 193.32 140.335 206.556 122.584 213.693C107.782 219.647 89.5385 214.021 89.5385 214.021C89.5385 214.021 105.815 212.892 107.964 200.475C109.657 190.771 100.808 183.871 95.2736 175.113C89.6295 166.192 88.1912 158.782 90.904 155.578C98.6054 146.474 119.816 171.071 130.358 174.385C140.663 177.626 147.618 170.107 156.157 171.199C158.888 171.545 160.217 172.728 161.091 174.221C161.382 174.731 162.128 176.442 162.784 177.08C163.421 177.699 164.277 178.154 165.078 178.627C166.079 179.228 167.081 180.357 166.079 180.357V180.357Z" fill="url(#paint0_linear_1_2)"/>
<path d="M117.34 166.137C114.791 164.189 112.169 162.168 109.566 160.311C108.983 159.893 108.401 159.492 107.818 159.091C100.881 154.34 94.4543 151.372 90.904 155.578C88.1912 158.782 89.6295 166.192 95.2736 175.113C95.3282 175.204 95.3828 175.295 95.4556 175.386C98.4051 179.938 106.926 190.607 127.153 190.152C128.482 188.732 130.503 186.074 133.125 183.161C128.865 176.315 122.492 170.343 117.34 166.137V166.137Z" fill="url(#paint1_linear_1_2)"/>
<path d="M137.713 198.309C137.786 195.268 137.24 192.282 136.184 189.387C133.526 189.788 130.54 190.061 127.135 190.134C124.659 192.756 119.015 199.783 109.639 206.119C97.1853 214.549 89.5385 214.021 89.5385 214.021C89.5385 214.021 107.782 219.647 122.565 213.711C127.863 211.581 131.796 208.905 134.982 205.955C135.51 205.446 137.604 202.86 137.713 198.309Z" fill="url(#paint2_linear_1_2)"/>
<path d="M133.107 183.161C130.503 186.056 128.464 188.732 127.135 190.152C130.54 190.079 133.526 189.806 136.184 189.406C135.874 188.55 135.51 187.694 135.11 186.857C134.527 185.582 133.853 184.362 133.107 183.161V183.161Z" fill="url(#paint3_linear_1_2)"/>
<path d="M148.273 172.164C142.811 173.821 137.367 176.588 130.358 174.385C126.88 173.293 122.256 169.888 117.34 166.156C122.492 170.361 128.883 176.315 133.125 183.179C136.985 178.864 142.137 174.094 148.273 172.164Z" fill="url(#paint4_linear_1_2)"/>
<path d="M136.202 189.387C137.258 192.282 137.804 195.268 137.731 198.309C137.622 202.842 135.528 205.446 135 205.955C142.465 199.055 145.815 190.662 153.08 184.362C154.427 183.197 155.829 182.36 157.194 181.777C152.406 183.761 147.235 187.731 136.202 189.387V189.387Z" fill="url(#paint5_linear_1_2)"/>
<path d="M166.079 180.357C167.081 180.357 166.079 179.21 165.06 178.627C164.259 178.154 163.421 177.699 162.766 177.08C162.11 176.442 161.382 174.731 161.072 174.221C160.18 172.71 158.851 171.545 156.138 171.199C153.407 170.853 150.822 171.381 148.255 172.164C142.119 174.094 136.949 178.882 133.089 183.161C133.835 184.362 134.509 185.582 135.11 186.838C135.51 187.676 135.874 188.532 136.184 189.387C147.235 187.712 152.406 183.761 157.176 181.759C160.18 180.448 162.984 180.339 164.714 180.357H166.079V180.357Z" fill="url(#paint6_linear_1_2)"/>
<path d="M109.657 206.119C119.015 199.783 124.677 192.756 127.153 190.134C106.926 190.589 98.3869 179.938 95.4556 175.386C101.009 184.016 109.639 190.88 107.982 200.475C105.815 212.892 89.5385 214.021 89.5385 214.021C89.5385 214.021 97.1853 214.549 109.657 206.119Z" fill="url(#paint7_linear_1_2)"/>
<path d="M155.592 177.426C156.487 177.426 157.213 176.708 157.213 175.823C157.213 174.939 156.487 174.221 155.592 174.221C154.697 174.221 153.972 174.939 153.972 175.823C153.972 176.708 154.697 177.426 155.592 177.426Z" fill="white"/>
<path d="M545.501 324.473C544.902 302.039 523.09 284.165 501.053 288.143C478.729 292.174 464.95 312.454 469.44 334.672C473.662 355.562 496.353 369.319 516.792 363.627C517.658 363.341 518.512 363.02 519.352 362.664L517.936 355.64C517.936 355.64 516.154 356.321 515.226 356.636C511.1 357.897 506.782 358.043 502.577 357.405C484.971 354.734 472.688 337.736 476.035 320.921C479.705 302.486 497.013 291.345 515.003 295.837C537.268 301.397 546.087 330.396 530.545 346.831C530.268 345.829 530.086 345.37 529.938 344.711C527.747 334.948 525.553 325.185 523.428 315.408C522.88 312.89 522.347 310.378 519.242 310.048C516.166 309.721 514.971 311.893 514.013 314.364C511.826 320.004 509.472 326.07 507.019 331.493C506.156 329.973 506.052 329.766 505.588 328.997C503.457 325.467 501.529 321.818 499.474 318.242C498.527 316.595 497.144 315.522 495.153 315.73C493.371 315.917 492.023 316.907 491.496 318.647C489.389 325.607 487.514 332.587 485.359 339.862L492.752 339.542C492.752 339.542 493.274 337.539 493.574 336.015C494.233 332.656 495.257 329.369 496.303 325.357C498.559 329.661 500.463 333.283 502.355 336.91C503.467 339.04 505.052 340.604 507.594 340.442C510.103 340.281 511.126 338.007 512.001 336.014C512.615 334.614 516.044 325.638 517.878 320.565C518.108 321.763 518.261 322.213 518.404 322.904C520.739 334.206 523.226 345.48 525.333 356.825C525.553 358.014 525.985 359.855 525.985 359.855C526.956 359.353 527.893 358.787 528.789 358.16C540.189 349.819 545.882 338.696 545.501 324.473V324.473Z" fill="#C42227"/>
<path d="M467.631 210.528L454.885 232.281H429.224L416.408 210.271L424.918 194.45H412.103L403.538 210.372L422.8 243.625H461.316L480.5 210.528H467.631Z" fill="#0979B9"/>
<path d="M461.316 175.538H422.248L416.214 186.89H435.873V224.713H447.224V186.89H454.885L463.551 202.96H476.351L461.316 175.538Z" fill="#2592C0"/>
<path d="M321.49 273.026C321.49 251.815 304.233 234.559 283.022 234.559C261.811 234.559 244.555 251.815 244.555 273.026C244.555 294.237 261.811 311.493 283.022 311.493C304.233 311.493 321.49 294.237 321.49 273.026ZM246.251 273.026C246.251 252.75 262.747 236.254 283.023 236.254C303.299 236.254 319.794 252.75 319.794 273.026C319.794 293.302 303.298 309.798 283.022 309.798C262.746 309.798 246.251 293.302 246.251 273.026H246.251Z" fill="#3B697E"/>
<path d="M303.818 280.265C307.334 280.265 310.184 277.414 310.184 273.898C310.184 270.382 307.334 267.532 303.818 267.532C300.302 267.532 297.451 270.382 297.451 273.898C297.451 277.414 300.302 280.265 303.818 280.265Z" fill="#3B697E"/>
<path d="M282.872 304.564C286.388 304.564 289.238 301.714 289.238 298.198C289.238 294.682 286.388 291.831 282.872 291.831C279.356 291.831 276.505 294.682 276.505 298.198C276.505 301.714 279.356 304.564 282.872 304.564Z" fill="#3B697E"/>
<path d="M281.999 274.352L285.96 264.514L289.552 274.776H292.777C292.912 276.386 293.397 277.948 294.199 279.351C295 280.754 296.099 281.965 297.418 282.899L287.01 293.308L287.809 294.107L298.397 283.519C300.067 284.457 301.952 284.946 303.868 284.938C305.784 284.93 307.665 284.425 309.328 283.472C310.99 282.52 312.377 281.153 313.353 279.504C314.33 277.856 314.861 275.982 314.897 274.067C314.933 272.151 314.471 270.259 313.557 268.575C312.643 266.891 311.308 265.473 309.682 264.459C308.057 263.446 306.196 262.871 304.282 262.791C302.367 262.712 300.465 263.13 298.761 264.005L287.895 253.683C288.948 252.425 289.474 250.81 289.365 249.174C289.256 247.538 288.521 246.007 287.311 244.9C286.101 243.792 284.511 243.195 282.872 243.231C281.232 243.267 279.67 243.934 278.51 245.093C277.35 246.253 276.682 247.815 276.646 249.454C276.609 251.093 277.206 252.684 278.312 253.894C279.419 255.104 280.95 255.841 282.586 255.95C284.222 256.06 285.837 255.534 287.096 254.483L297.745 264.599C296.238 265.587 294.995 266.927 294.124 268.503C293.252 270.08 292.778 271.845 292.742 273.646H290.353L286.034 261.304L281.235 273.222H275.877L271.324 283.759L267.308 273.718L267.296 273.723V273.615H263.236C263.164 271.977 262.462 270.429 261.277 269.295C260.092 268.161 258.516 267.528 256.876 267.528C255.236 267.527 253.659 268.159 252.473 269.293C251.288 270.426 250.585 271.973 250.512 273.611C250.438 275.249 251 276.853 252.079 278.088C253.159 279.322 254.673 280.093 256.306 280.239C257.94 280.385 259.567 279.896 260.848 278.872C262.13 277.849 262.967 276.371 263.185 274.745H266.501L271.284 286.702L276.62 274.352H281.999ZM303.818 263.912C305.785 263.912 307.709 264.496 309.345 265.589C310.981 266.682 312.256 268.236 313.009 270.053C313.762 271.871 313.959 273.872 313.575 275.801C313.191 277.731 312.244 279.504 310.852 280.895C309.461 282.286 307.688 283.234 305.759 283.618C303.829 284.002 301.828 283.805 300.011 283.052C298.193 282.299 296.639 281.024 295.546 279.387C294.453 277.751 293.869 275.828 293.869 273.86C293.872 271.223 294.921 268.694 296.786 266.829C298.651 264.964 301.18 263.915 303.818 263.912V263.912Z" fill="#3B697E"/>
<path d="M331.076 103.813L323.876 72.4622C323.467 70.7467 321.911 69.0311 320.196 68.5333L287.289 58.3822C286.88 58.2222 286.391 58.2222 285.893 58.2222C284.498 58.2222 283.031 58.7911 282.044 59.6178L258.471 81.5556C257.164 82.7022 256.507 84.9956 256.916 86.6311L264.613 120.196C265.022 121.911 266.578 123.636 268.293 124.124L299.067 133.618C299.476 133.778 299.964 133.778 300.462 133.778C301.858 133.778 303.324 133.209 304.311 132.382L329.52 108.978C330.836 107.751 331.484 105.538 331.076 103.813ZM290.729 65.8311L313.316 72.7911C314.213 73.04 314.213 73.4489 313.316 73.6889L301.449 76.3911C300.551 76.64 299.324 76.2311 298.667 75.5733L290.4 66.6489C289.662 65.92 289.822 65.5911 290.729 65.8311ZM304.8 106.356C305.049 107.253 304.471 107.751 303.573 107.502L279.182 99.9733C278.284 99.7245 278.116 98.9867 278.773 98.3378L297.44 80.9778C298.098 80.32 298.836 80.5689 299.076 81.4667L304.8 106.356ZM264.613 84.2489L284.427 65.8311C285.084 65.1733 286.142 65.2622 286.8 65.9111L296.702 76.64C297.36 77.2978 297.271 78.3556 296.622 79.0133L276.809 97.4311C276.151 98.0889 275.093 98 274.436 97.3511L264.533 86.6311C263.876 85.8933 263.964 84.8267 264.613 84.2489ZM269.449 113.476L264.213 90.4711C263.964 89.5733 264.373 89.4045 264.951 90.0622L273.218 98.9867C273.876 99.6445 274.116 100.951 273.876 101.849L270.267 113.476C270.018 114.373 269.609 114.373 269.449 113.476ZM298.418 126.898L272.551 118.96C271.653 118.711 271.156 117.733 271.404 116.836L275.742 102.916C275.991 102.018 276.969 101.52 277.867 101.769L303.733 109.707C304.631 109.956 305.129 110.933 304.88 111.831L300.542 125.751C300.222 126.658 299.324 127.147 298.418 126.898ZM321.333 108.071L304.071 124.116C303.413 124.773 303.093 124.524 303.333 123.627L306.933 112C307.182 111.102 308.16 110.196 309.058 110.036L320.924 107.333C321.831 107.093 321.991 107.502 321.333 108.071ZM323.218 104.64L308.978 107.911C308.08 108.16 307.173 107.582 306.933 106.684L300.88 80.3289C300.631 79.4311 301.209 78.5245 302.107 78.2845L316.347 75.0133C317.244 74.7645 318.151 75.3422 318.391 76.24L324.444 102.596C324.693 103.573 324.124 104.471 323.218 104.64Z" fill="#22ADF6"/>
<defs>
<linearGradient id="paint0_linear_1_2" x1="89.5385" y1="184.997" x2="166.494" y2="184.997" gradientUnits="userSpaceOnUse">
<stop stop-color="#2A59A2"/>
<stop offset="1" stop-color="#2A59A2"/>
</linearGradient>
<linearGradient id="paint1_linear_1_2" x1="86.4311" y1="171.858" x2="167.827" y2="171.858" gradientUnits="userSpaceOnUse">
<stop stop-color="#91D3F2"/>
<stop offset="0.266" stop-color="#6FB2DE"/>
<stop offset="0.521" stop-color="#5598CE"/>
<stop offset="0.673" stop-color="#4B8FC8"/>
</linearGradient>
<linearGradient id="paint2_linear_1_2" x1="89.5447" y1="202.912" x2="167.062" y2="202.912" gradientUnits="userSpaceOnUse">
<stop stop-color="#2C9EC7"/>
<stop offset="0.404" stop-color="#2C63A5"/>
<stop offset="1" stop-color="#395DA1"/>
</linearGradient>
<linearGradient id="paint3_linear_1_2" x1="89.5434" y1="186.648" x2="167.061" y2="186.648" gradientUnits="userSpaceOnUse">
<stop stop-color="#4FAAC4"/>
<stop offset="0.002" stop-color="#2F75B1"/>
<stop offset="1" stop-color="#356EAC"/>
</linearGradient>
<linearGradient id="paint4_linear_1_2" x1="117.331" y1="174.648" x2="167.507" y2="174.648" gradientUnits="userSpaceOnUse">
<stop stop-color="#4FAAC4"/>
<stop offset="0.002" stop-color="#2F81B6"/>
<stop offset="1" stop-color="#3B5EA9"/>
</linearGradient>
<linearGradient id="paint5_linear_1_2" x1="117.329" y1="193.857" x2="167.505" y2="193.857" gradientUnits="userSpaceOnUse">
<stop stop-color="#4FAAC4"/>
<stop offset="0.002" stop-color="#1E3773"/>
<stop offset="1" stop-color="#203370"/>
</linearGradient>
<linearGradient id="paint6_linear_1_2" x1="149.803" y1="198.048" x2="149.803" y2="170.534" gradientUnits="userSpaceOnUse">
<stop stop-color="#4FAAC4"/>
<stop offset="0.002" stop-color="#2C5A9A"/>
<stop offset="1" stop-color="#374580"/>
</linearGradient>
<linearGradient id="paint7_linear_1_2" x1="81.1754" y1="194.703" x2="138.274" y2="194.703" gradientUnits="userSpaceOnUse">
<stop offset="0.112" stop-color="#38B1DA"/>
<stop offset="1" stop-color="#326FB5"/>
</linearGradient>
</defs>
</svg>
